<svg xmlns="http://www.w3.org/2000/svg" xmlns:xlink="http://www.w3.org/1999/xlink" version="1.1" id="Layer_36" x="0px" y="0px" width="100px" height="100px" viewBox="0 0 100 100" enable-background="new 0 0 100 100" xml:space="preserve">
<path stroke="#fff" fill="#fff" d="M50,12.868c-17.834,0-32.289,14.456-32.289,32.289c0,11.053,5.586,20.805,14.055,26.626l-0.047,0.035v14.062  c0,2.812,2.758,0,2.758,0l9.082-9.081c2.081,0.422,4.237,0.644,6.442,0.644c17.834,0,32.289-14.455,32.289-32.286  C82.289,27.324,67.834,12.868,50,12.868z M48.763,67.795c-3.545,0-5.95-2.606-5.95-6.084c0-3.61,2.473-6.083,5.95-6.083  c3.607,0,5.947,2.473,6.017,6.083C54.779,65.188,52.439,67.795,48.763,67.795z M56.537,42.856c-2.406,2.743-3.725,5.35-3.725,8.359  v0.916h-8.263l-0.066-1.595c-0.201-3.411,0.936-6.815,3.944-10.358c2.139-2.607,3.879-4.777,3.879-6.983  c0-2.34-1.539-3.926-4.881-3.994c-2.207,0-4.881,0.812-6.62,2.015l-2.272-7.283c2.473-1.404,6.417-2.739,11.164-2.739  c8.825,0,12.747,4.881,12.747,10.43C62.444,36.704,59.077,40.048,56.537,42.856z"/>
</svg>